<svg width="1440" height="900" viewBox="0 0 1440 900" xmlns="http://www.w3.org/2000/svg"
     font-family="-apple-system, 'SF Pro Text', Inter, system-ui, sans-serif">
  <defs>
    <filter id="s4" x="-40%" y="-40%" width="180%" height="200%">
      <feDropShadow dx="0" dy="1" stdDeviation="1" flood-color="#000" flood-opacity="0.04"/>
      <feDropShadow dx="0" dy="6" stdDeviation="12" flood-color="#000" flood-opacity="0.05"/>
    </filter>
    <pattern id="dots4" width="24" height="24" patternUnits="userSpaceOnUse">
      <circle cx="1" cy="1" r="1" fill="#0B0B0F" opacity="0.055"/>
    </pattern>
    <marker id="arw4" markerWidth="9" markerHeight="9" refX="6.5" refY="4.5" orient="auto">
      <path d="M2.5,1.5 L6.5,4.5 L2.5,7.5" fill="none" stroke="#C7C7CC" stroke-width="1.5" stroke-linecap="round" stroke-linejoin="round"/>
    </marker>
  </defs>

  <rect width="1440" height="900" fill="#F5F5F7"/>
  <rect width="1440" height="56" fill="#FFF" opacity="0.92"/><path d="M0 56 H1440" stroke="#E5E5EA"/>
  <path d="M28 28 L22 34 L28 40" fill="none" stroke="#6E6E73" stroke-width="1.6" stroke-linecap="round" stroke-linejoin="round"/>
  <text x="38" y="39" font-size="13" fill="#6E6E73">Fleet</text>
  <text x="88" y="39" font-size="15" font-weight="600" fill="#1D1D1F">Billing Support</text>
  <rect x="204" y="24" width="52" height="21" rx="10.5" fill="#F5F5F7" stroke="#E5E5EA"/>
  <text x="230" y="38" font-size="11" text-anchor="middle" fill="#6E6E73">Draft</text>
  <circle cx="1206" cy="34" r="4" fill="#0071E3"/>
  <text x="1218" y="38" font-size="11" fill="#A1A1A6">Saving…</text>
  <text x="1416" y="38" font-size="13" text-anchor="end" fill="#0071E3">Engine Room</text>

  <!-- left rail -->
  <rect y="56" width="248" height="776" fill="#FFF"/><path d="M248 56 V832" stroke="#E5E5EA"/>
  <text x="20" y="88" font-size="11" font-weight="600" letter-spacing="0.9" fill="#A1A1A6">BUILD</text>
  <rect x="8" y="248" width="232" height="38" rx="10" fill="#F5F5F7"/>
  <g font-size="13" font-weight="500" fill="#1D1D1F">
    <path d="M24 191 l4 4 l8 -9" fill="none" stroke="#34C759" stroke-width="1.8" stroke-linecap="round" stroke-linejoin="round"/><text x="48" y="196">Purpose</text>
    <path d="M24 229 l4 4 l8 -9" fill="none" stroke="#34C759" stroke-width="1.8" stroke-linecap="round" stroke-linejoin="round"/><text x="48" y="234">Brain</text>
    <circle cx="28" cy="267" r="5" fill="#0071E3"/><text x="48" y="272" font-weight="600">Knowledge</text>
    <circle cx="28" cy="305" r="5" fill="#FF9F0A"/><text x="48" y="310">Tools</text>
    <circle cx="28" cy="343" r="5" fill="#C7C7CC"/><text x="48" y="348" fill="#6E6E73">Guardrails</text>
    <circle cx="28" cy="381" r="5" fill="#C7C7CC"/><text x="48" y="386" fill="#6E6E73">Memory</text>
    <circle cx="28" cy="419" r="5" fill="#FF9F0A"/><text x="48" y="424">Evaluation</text>
    <circle cx="28" cy="457" r="5" fill="#FF9F0A"/><text x="48" y="462">Ship</text>
  </g>
  <g font-size="11" fill="#A1A1A6" text-anchor="end">
    <text x="228" y="310" fill="#B25E00">approval</text><text x="228" y="348">default</text><text x="228" y="386">default</text>
    <text x="228" y="272" fill="#0071E3">3 sources</text><text x="228" y="424" fill="#B25E00">required</text><text x="228" y="462" fill="#B25E00">blocked</text>
  </g>

  <!-- canvas with Knowledge node selected -->
  <rect x="248" y="56" width="832" height="776" fill="url(#dots4)"/>
  <g fill="none" stroke="#D1D1D6" stroke-width="1.5" marker-end="url(#arw4)">
    <path d="M664 163 V215"/><path d="M664 281 V322"/><path d="M664 410 V451"/><path d="M664 517 V569"/>
    <path d="M516 210 C548 210 544 244 572 248"/><path d="M516 306 C548 306 544 268 572 264"/>
    <path d="M812 210 C780 210 784 244 756 248"/><path d="M812 486 C776 486 784 600 756 604"/>
  </g>
  <path d="M764 368 H808" stroke="#D1D1D6" stroke-width="1.5" fill="none" marker-end="url(#arw4)"/>
  <g filter="url(#s4)" fill="#FFF" stroke="#E5E5EA">
    <rect x="576" y="101" width="176" height="62" rx="14"/>
    <rect x="348" y="275" width="168" height="62" rx="14"/>
    <rect x="812" y="179" width="168" height="62" rx="14"/>
    <rect x="812" y="337" width="168" height="62" rx="14"/>
    <rect x="812" y="455" width="168" height="62" rx="14"/>
    <rect x="576" y="219" width="176" height="62" rx="14"/>
    <rect x="564" y="326" width="200" height="84" rx="16"/>
    <rect x="576" y="455" width="176" height="62" rx="14"/>
    <rect x="576" y="573" width="176" height="62" rx="14"/>
  </g>
  <rect x="340" y="171" width="184" height="78" rx="20" fill="none" stroke="#0071E3" stroke-opacity="0.16" stroke-width="8"/>
  <rect x="348" y="179" width="168" height="62" rx="14" fill="#FFF" stroke="#0071E3" stroke-width="1.5" filter="url(#s4)"/>
  <g font-size="13" font-weight="600" fill="#1D1D1F">
    <text x="624" y="130">Purpose</text><text x="624" y="248">Context assembly</text>
    <text x="616" y="362">Brain</text><text x="624" y="484">Response</text><text x="624" y="602">Ship</text>
    <text x="396" y="208">Knowledge</text><text x="396" y="304">Memory</text>
    <text x="860" y="208">Guardrails</text><text x="860" y="366">Tools</text><text x="860" y="484">Evaluation</text>
  </g>
  <g font-size="11" fill="#6E6E73">
    <text x="624" y="146">Role, task, rules</text><text x="624" y="264">History · scope · summary</text>
    <text x="616" y="378">Claude Sonnet 4.5</text><text x="624" y="500">Streaming · citations</text>
    <text x="624" y="618">2 blocking issues</text>
    <text x="396" y="224">1 ready · 1 embedding · 1 failed</text><text x="396" y="320">Conversation scope</text>
    <text x="860" y="224">Platform defaults</text><text x="860" y="382">1 approval required</text><text x="860" y="500">Dataset · not run</text>
  </g>
  <g>
    <circle cx="736" cy="117" r="4" fill="#34C759"/><circle cx="736" cy="235" r="4" fill="#34C759"/>
    <circle cx="736" cy="342" r="4" fill="#34C759"/><circle cx="736" cy="471" r="4" fill="#C7C7CC"/>
    <circle cx="736" cy="589" r="4" fill="#FF9F0A"/><circle cx="500" cy="195" r="4" fill="#0071E3"/>
    <circle cx="500" cy="291" r="4" fill="#34C759"/><circle cx="964" cy="195" r="4" fill="#34C759"/>
    <circle cx="964" cy="353" r="4" fill="#FF9F0A"/><circle cx="964" cy="471" r="4" fill="#FF9F0A"/>
  </g>

  <!-- ===== right inspector: Knowledge ===== -->
  <rect x="1080" y="56" width="360" height="776" fill="#FFF"/><path d="M1080 56 V832" stroke="#E5E5EA"/>
  <text x="1104" y="94" font-size="17" font-weight="600" fill="#1D1D1F">Knowledge</text>
  <text x="1104" y="114" font-size="12" fill="#6E6E73">Give it memory</text>
  <path d="M1396 88 l10 10 M1406 88 l-10 10" stroke="#A1A1A6" stroke-width="1.6" stroke-linecap="round"/>

  <!-- dropzone -->
  <rect x="1104" y="136" width="312" height="118" rx="14" fill="#FAFAFC" stroke="#0071E3" stroke-opacity="0.45" stroke-width="1.5" stroke-dasharray="5 4"/>
  <g stroke="#A1A1A6" stroke-width="1.4" fill="none" stroke-linecap="round" stroke-linejoin="round">
    <rect x="1244" y="158" width="24" height="30" rx="4"/><path d="M1250 168 h12 M1250 174 h12 M1250 180 h8"/>
    <path d="M1256 152 v-8 M1252 148 l4 -4 l4 4"/>
  </g>
  <text x="1260" y="212" font-size="13" font-weight="600" text-anchor="middle" fill="#1D1D1F">Drop files here</text>
  <text x="1260" y="230" font-size="11" text-anchor="middle" fill="#A1A1A6">PDF, DOCX, MD, TXT · up to 20 per drop</text>
  <text x="1260" y="248" font-size="12" text-anchor="middle" fill="#0071E3">Upload  ·  Connect a source</text>

  <text x="1104" y="286" font-size="11" font-weight="600" letter-spacing="0.9" fill="#A1A1A6">ATTACHED · 3</text>

  <!-- row: ready -->
  <g filter="url(#s4)"><rect x="1104" y="298" width="312" height="66" rx="12" fill="#FFF" stroke="#E5E5EA"/></g>
  <rect x="1120" y="314" width="26" height="34" rx="4" fill="#F5F5F7" stroke="#E5E5EA"/>
  <text x="1133" y="336" font-size="9" text-anchor="middle" fill="#86868B">PDF</text>
  <text x="1158" y="326" font-size="13" font-weight="600" fill="#1D1D1F">refund-policy.pdf</text>
  <text x="1158" y="344" font-size="11" fill="#6E6E73">412 KB · v3 · 38 chunks</text>
  <circle cx="1392" cy="322" r="4.5" fill="#34C759"/>
  <text x="1392" y="348" font-size="11" text-anchor="end" fill="#1E7A3C">Ready</text>

  <!-- row: embedding coverage -->
  <g filter="url(#s4)"><rect x="1104" y="374" width="312" height="76" rx="12" fill="#FFF" stroke="#E5E5EA"/></g>
  <rect x="1120" y="390" width="26" height="34" rx="4" fill="#F5F5F7" stroke="#E5E5EA"/>
  <text x="1133" y="412" font-size="9" text-anchor="middle" fill="#86868B">PDF</text>
  <text x="1158" y="402" font-size="13" font-weight="600" fill="#1D1D1F">faq-2026.pdf</text>
  <text x="1158" y="420" font-size="11" fill="#6E6E73">1.2 MB · v1 · embedding for current model</text>
  <circle cx="1392" cy="398" r="4.5" fill="#0071E3"/>
  <rect x="1158" y="430" width="180" height="4" rx="2" fill="#E5E5EA"/>
  <rect x="1158" y="430" width="112" height="4" rx="2" fill="#0071E3"/>
  <text x="1392" y="438" font-size="11" text-anchor="end" fill="#0058B0">62%</text>

  <!-- row: failed -->
  <g filter="url(#s4)"><rect x="1104" y="460" width="312" height="66" rx="12" fill="#FFF" stroke="#FF453A" stroke-opacity="0.3"/></g>
  <rect x="1120" y="476" width="26" height="34" rx="4" fill="#FFF1F0" stroke="#FF453A" stroke-opacity="0.3"/>
  <text x="1133" y="498" font-size="9" text-anchor="middle" fill="#C0392B">DOC</text>
  <text x="1158" y="488" font-size="13" font-weight="600" fill="#1D1D1F">billing-handbook.docx</text>
  <text x="1158" y="506" font-size="11" fill="#C0392B">Quarantined: password-protected file</text>
  <text x="1392" y="488" font-size="12" text-anchor="end" fill="#0071E3">Retry</text>
  <text x="1392" y="508" font-size="12" text-anchor="end" fill="#6E6E73">Remove</text>

  <path d="M1104 550 H1416" stroke="#E5E5EA"/>
  <text x="1104" y="578" font-size="11" font-weight="600" letter-spacing="0.9" fill="#A1A1A6">RETRIEVAL</text>
  <text x="1104" y="604" font-size="13" font-weight="500" fill="#1D1D1F">Retrieval enabled</text>
  <rect x="1374" y="590" width="42" height="26" rx="13" fill="#34C759"/><circle cx="1403" cy="603" r="11" fill="#FFF"/>
  <text x="1104" y="640" font-size="13" font-weight="500" fill="#1D1D1F">Max results</text>
  <text x="1416" y="640" font-size="13" text-anchor="end" fill="#1D1D1F">5</text>
  <rect x="1104" y="652" width="312" height="4" rx="2" fill="#E5E5EA"/>
  <rect x="1104" y="652" width="78" height="4" rx="2" fill="#1D1D1F"/>
  <circle cx="1182" cy="654" r="9" fill="#FFF" stroke="#E5E5EA" filter="url(#s4)"/>

  <!-- whisper: honest coverage truth -->
  <rect x="1104" y="686" width="312" height="76" rx="12" fill="#FFF8EE" stroke="#FF9F0A" stroke-opacity="0.28"/>
  <circle cx="1124" cy="710" r="7" fill="none" stroke="#B25E00" stroke-width="1.4"/>
  <path d="M1124 706 v5 M1124 714 v0.5" stroke="#B25E00" stroke-width="1.6" stroke-linecap="round"/>
  <text x="1140" y="708" font-size="12" font-weight="600" fill="#8A4B00">Embedding coverage incomplete</text>
  <text x="1140" y="726" font-size="11" fill="#8A4B00">faq-2026.pdf is still being embedded for</text>
  <text x="1140" y="742" font-size="11" fill="#8A4B00">the current model. Publishing will ask you</text>
  <text x="1140" y="758" font-size="11" fill="#8A4B00">to acknowledge degraded knowledge.</text>

  <text x="1104" y="792" font-size="12" fill="#A1A1A6">Removing only detaches a source from this</text>
  <text x="1104" y="808" font-size="12" fill="#A1A1A6">agent — it stays in your knowledge library.</text>

  <!-- bottom bar -->
  <rect y="832" width="1440" height="68" fill="#FFF"/><path d="M0 832 H1440" stroke="#E5E5EA"/>
  <text x="24" y="872" font-size="12" fill="#6E6E73">Knowledge is optional. Skipped is not broken.</text>
  <text x="1140" y="871" font-size="13" text-anchor="middle" fill="#6E6E73">Skip for now</text>
  <rect x="1288" y="846" width="128" height="40" rx="12" fill="#0071E3"/>
  <text x="1352" y="871" font-size="14" font-weight="600" text-anchor="middle" fill="#FFF">Continue</text>
</svg>